name Walk4.mot
datacolumns 19
datarows 22
range 2.37500000 2.48000000
endheader

                time	   L_ground_force_vx	   L_ground_force_vy	   L_ground_force_vz	   L_ground_force_px	   L_ground_force_py	   L_ground_force_pz	   R_ground_force_vx	   R_ground_force_vy	   R_ground_force_vz	   R_ground_force_px	   R_ground_force_py	   R_ground_force_pz	   L_ground_torque_x	   L_ground_torque_y	   L_ground_torque_z	   R_ground_torque_x	   R_ground_torque_y	   R_ground_torque_z	
          2.37500000	          6.18339088	         18.47091490	         -1.00118102	          0.30003168	          0.00000000	          0.13148334	          0.00000000	          0.00000000	          0.00000000	         -0.00000000	          0.00000000	          0.00000000	          0.00000000	          0.02568766	          0.00000000	          0.00000000	         -0.00000000	          0.00000000	
          2.38000000	          1.37719483	          7.00983258	         -0.83102801	          0.23622707	          0.00000000	          0.10457330	          0.00000000	          0.00000000	          0.00000000	         -0.00000000	          0.00000000	          0.00000000	          0.00000000	          0.02253193	          0.00000000	          0.00000000	          0.00000000	          0.00000000	
          2.38500000	         -1.81388994	         -0.89427089	         -0.65618246	          0.17663060	          0.00000000	          0.07904738	          0.00000000	          0.00000000	          0.00000000	         -0.00000000	          0.00000000	          0.00000000	          0.00000000	          0.01872644	          0.00000000	          0.00000000	          0.00000000	          0.00000000	
          2.39000000	         -3.71681402	         -5.89229331	         -0.49216130	          0.12444318	          0.00000000	          0.05642641	          0.00000000	          0.00000000	          0.00000000	         -0.00000000	          0.00000000	          0.00000000	          0.00000000	          0.01480502	          0.00000000	          0.00000000	          0.00000000	          0.00000000	
          2.39500000	         -4.64316733	         -8.63141911	         -0.34805370	          0.08113446	          0.00000000	          0.03745738	          0.00000000	          0.00000000	          0.00000000	         -0.00000000	          0.00000000	          0.00000000	          0.00000000	          0.01111939	          0.00000000	          0.00000000	          0.00000000	          0.00000000	
          2.40000000	         -4.87000136	         -9.70532654	         -0.22811344	          0.04694465	          0.00000000	          0.02233048	          0.00000000	          0.00000000	          0.00000000	         -0.00000000	          0.00000000	          0.00000000	          0.00000000	          0.00787646	          0.00000000	          0.00000000	          0.00000000	          0.00000000	
          2.40500000	         -4.63030741	         -9.62642859	         -0.13315707	          0.02130664	          0.00000000	          0.01086382	          0.00000000	          0.00000000	          0.00000000	         -0.00000000	          0.00000000	          0.00000000	          0.00000000	          0.00517390	          0.00000000	          0.00000000	          0.00000000	          0.00000000	
          2.41000000	         -4.11039499	         -8.81449876	         -0.06173227	          0.00318038	          0.00000000	          0.00265128	          0.00000000	          0.00000000	          0.00000000	         -0.00000000	          0.00000000	          0.00000000	          0.00000000	          0.00303160	          0.00000000	          0.00000000	          0.00000000	          0.00000000	
          2.41500000	         -3.45190269	         -7.59670361	         -0.01104665	         -0.00869517	          0.00000000	         -0.00282495	          0.00000000	          0.00000000	          0.00000000	         -0.00000000	          0.00000000	          0.00000000	          0.00000000	          0.00141803	          0.00000000	          0.00000000	          0.00000000	          0.00000000	
          2.42000000	         -2.75662056	         -6.21494777	          0.02233071	         -0.01562304	          0.00000000	         -0.00611333	          0.00000000	          0.00000000	          0.00000000	         -0.00000000	          0.00000000	          0.00000000	          0.00000000	          0.00027113	          0.00000000	          0.00000000	          0.00000000	          0.00000000	
          2.42500000	         -2.09273425	         -4.83732730	          0.04196887	         -0.01883016	          0.00000000	         -0.00773862	          0.00000000	         -0.00000000	          0.00000000	         -0.00000000	          0.00000000	          0.00000000	          0.00000000	         -0.00048580	          0.00000000	          0.00000000	          0.00000000	          0.00000000	
          2.43000000	         -1.50148684	         -3.57131188	          0.05124322	         -0.01939759	          0.00000000	         -0.00816885	         -0.00000000	         -0.00000000	          0.00000000	         -0.00000000	          0.00000000	          0.00000000	          0.00000000	         -0.00093279	          0.00000000	          0.00000000	          0.00000000	          0.00000000	
          2.43500000	         -1.00358188	         -2.47699312	          0.05313796	         -0.01822735	          0.00000000	         -0.00779869	         -0.00000000	         -0.00000000	          0.00000000	         -0.00000000	          0.00000000	          0.00000000	          0.00000000	         -0.00114566	          0.00000000	          0.00000000	          0.00000000	          0.00000000	
          2.44000000	         -0.60491388	         -1.57932750	          0.05015045	         -0.01603534	          0.00000000	         -0.00694453	         -0.00000000	         -0.00000000	         -0.00000000	          0.00000000	          0.00000000	          0.00000000	          0.00000000	         -0.00119156	          0.00000000	          0.00000000	          0.00000000	          0.00000000	
          2.44500000	         -0.30141444	         -0.87876622	          0.04426832	         -0.01336144	          0.00000000	         -0.00584755	         -0.00000000	         -0.00000000	         -0.00000000	          0.00000000	          0.00000000	         -0.00000000	          0.00000000	         -0.00112676	          0.00000000	          0.00000000	          0.00000000	          0.00000000	
          2.45000000	         -0.08294789	         -0.36001005	          0.03699514	         -0.01059000	          0.00000000	         -0.00468161	         -0.00000000	         -0.00000000	         -0.00000000	          0.00000000	          0.00000000	         -0.00000000	          0.00000000	         -0.00099609	          0.00000000	          0.00000000	          0.00000000	          0.00000000	
          2.45500000	          0.06371065	          0.00113067	          0.02940512	         -0.00797518	          0.00000000	         -0.00356365	         -0.00000000	         -0.00000000	         -0.00000000	          0.00000000	          0.00000000	         -0.00000000	          0.00000000	         -0.00083351	          0.00000000	          0.00000000	         -0.00000000	          0.00000000	
          2.46000000	          0.15272119	          0.23263379	          0.02221220	         -0.00566761	          0.00000000	         -0.00256488	         -0.00000000	         -0.00000000	         -0.00000000	          0.00000000	          0.00000000	         -0.00000000	          0.00000000	         -0.00066334	          0.00000000	          0.00000000	         -0.00000000	          0.00000000	
          2.46500000	          0.19772352	          0.36269374	          0.01584280	         -0.00373957	          0.00000000	         -0.00172154	         -0.00000000	         -0.00000000	         -0.00000000	          0.00000000	          0.00000000	         -0.00000000	          0.00000000	         -0.00050174	          0.00000000	          0.00000000	         -0.00000000	          0.00000000	
          2.47000000	          0.21094511	          0.41741398	          0.01050525	         -0.00220740	          0.00000000	         -0.00104457	         -0.00000000	         -0.00000000	         -0.00000000	          0.00000000	          0.00000000	         -0.00000000	          0.00000000	         -0.00035844	          0.00000000	          0.00000000	         -0.00000000	          0.00000000	
          2.47500000	          0.20274065	          0.41949261	          0.00625155	         -0.00105027	          0.00000000	         -0.00052783	         -0.00000000	         -0.00000000	         -0.00000000	          0.00000000	          0.00000000	         -0.00000000	          0.00000000	         -0.00023819	          0.00000000	          0.00000000	         -0.00000000	          0.00000000	
          2.48000000	          0.18144495	          0.38764880	          0.00302931	         -0.00022516	          0.00000000	         -0.00015471	         -0.00000000	         -0.00000000	         -0.00000000	          0.00000000	          0.00000000	         -0.00000000	          0.00000000	         -0.00014224	          0.00000000	          0.00000000	         -0.00000000	          0.00000000	
